<svg xmlns="http://www.w3.org/2000/svg" width="12" height="12" viewBox="0 0 12 12"><path fill="#FFF" d="M3 11.8A2.803 2.803 0 0 1 .2 9V3C.2 1.456 1.456.2 3 .2h6c1.544 0 2.8 1.256 2.8 2.8v6c0 1.544-1.256 2.8-2.8 2.8H3z"/><path fill="#666" d="M9 .4c1.434 0 2.6 1.166 2.6 2.6v6c0 1.434-1.166 2.6-2.6 2.6H3A2.602 2.602 0 0 1 .4 9V3C.4 1.566 1.566.4 3 .4h6M9 0H3a3 3 0 0 0-3 3v6a3 3 0 0 0 3 3h6a3 3 0 0 0 3-3V3a3 3 0 0 0-3-3z"/><g fill="none" stroke="#666" stroke-width=".7" stroke-linejoin="round" stroke-miterlimit="10"><path d="M9.453 11.636a7.023 7.023 0 0 0-3.43-5.262A7.03 7.03 0 0 1 2.547.364"/><path d="M.186 9.212a7.024 7.024 0 0 0 5.441-3.448 7.032 7.032 0 0 1 6.187-3.476"/></g></svg>