<svg id="图层_1" xmlns="http://www.w3.org/2000/svg" width="70.4" height="11.3" viewBox="0 0 70.4 11.3"><style>.st0{stroke:#e84d1e}.st0,.st1,.st2{fill:none;stroke-width:.6;stroke-linejoin:round;stroke-miterlimit:10}.st1{stroke:#3ca0dc}.st2{stroke:#666}.st3{fill:#333}</style><path class="st0" d="M3.7 8.7L.3 5.6l3.4-3"/><path class="st1" d="M8.6 2.6l3.4 3-3.4 3.1"/><path class="st2" d="M7.1 2.6L5.2 8.5"/><path class="st3" d="M20.2 9.2l-.2-.6c.5-.3 1.1-.5 1.7-.7V3.7h-1.5V3h1.5V0h.6v3h1.5v.6h-1.5v4c.2-.1.5-.2.8-.4.2-.1.4-.2.5-.2 0 .2 0 .4.1.6-.6.3-1.6.7-3.1 1.5-.2.1-.3.1-.4.1zm2.2.5c1.8-1.2 2.9-2.7 3.3-4.6H24v-.7l5.2-3.1h-4.9V.8h5.9v.7l-5.2 3h5.9c0 .7-.1 1.8-.1 3.2V9c0 1.3-.6 1.9-1.8 1.9h-1.2v-.3c0-.2-.1-.3-.1-.4H29c.8.1 1.3-.3 1.2-1.2V7.7c.1-1.3.1-2.2.1-2.7h-1.6c-.5 2.9-1.6 4.9-3.3 6.2-.3-.3-.4-.4-.6-.5 1.7-1 2.7-2.9 3.2-5.7h-1.7c-.5 2.3-1.6 3.9-3.4 5-.1-.1-.3-.2-.5-.3zm16-5.6l.6-.2c0 .1.1.3.2.5s.1.4.1.5h5.2v.5H33.2v-.5h5.5c-.1-.3-.2-.5-.3-.8zM36.9 9l.3.5c-.9.4-2.1.9-3.6 1.5-.1-.2-.2-.4-.4-.6 1.3-.3 2.5-.8 3.7-1.4zM34.4.5h8.8v3.3h-8.8V.5zm.4 5.8H43v2.1h-3.7v1.5c0 .8-.4 1.1-1.2 1.2H37c0-.2 0-.4-.1-.7H38c.5 0 .8-.2.8-.6V8.4h-3.9V6.3zM35 1v.9h7.6V1H35zm0 1.4v1h7.6v-1H35zm.4 4.4V8h7V6.8h-7zm5.1 2.8l.3-.6c.2.1.4.1.7.2 1.2.4 2.2.7 3 1.1l-.3.5c-1.1-.4-2.3-.8-3.7-1.2zm5.9-5.5h11.3v.6h-5.2v4.9c0 .9-.4 1.3-1.3 1.4h-1.6c0-.3 0-.5-.1-.7H51c.7 0 1-.2.9-.8V4.7h-5.5v-.6zM48.8 6l.7.3c-1 1.7-1.9 2.9-2.5 3.8-.2-.2-.4-.3-.6-.3 1-1.4 1.9-2.6 2.4-3.8zM47.7.8h8.8v.7h-8.8V.8zm6.8 5.6L55 6c.2.3.5.6.9 1.2.8 1 1.4 1.8 1.8 2.3l-.6.3-.1-.1c-1.1-1.4-1.9-2.5-2.5-3.3zm5.3 0c-.1-.1-.1-.2-.2-.4 0-.1-.1-.2-.1-.3C60.7 4 61.5 2.1 62 0l.6.1c-.1.5-.3 1.1-.7 1.9-.1.3-.2.5-.2.7v8.5h-.6V4.1c-.3.8-.8 1.5-1.3 2.3zM63 .8h4.1v.6H65c-.1.7-.3 1.3-.5 2h2.2v.5c-.3 3.1-1.5 5.6-3.8 7.4 0-.1-.1-.2-.3-.4l-.1-.1c2.2-1.7 3.4-4 3.7-6.8h-1.8l-.6 1.5c.5.3.9.7 1.4 1l-.4.5c-.4-.4-.8-.7-1.3-1-.2.5-.5 1-.8 1.5 0-.1-.1-.1-.3-.2l-.2-.2c1.1-1.5 1.8-3.3 2.2-5.5H63V.8zm6.8-.7h.6v9.5c0 .8-.4 1.3-1.3 1.3h-1.4c0-.1-.1-.3-.1-.5v-.2H69c.6 0 .9-.2.9-.7V.1zm-1.5 8.4h-.6V1.9h.6v6.6z"/></svg>