<svg xmlns="http://www.w3.org/2000/svg" width="100" height="100" viewBox="0 0 100 100"><g fill="none" stroke="#212121" stroke-width=".7" stroke-linejoin="round" stroke-miterlimit="10"><path d="M29.008 66.205L50 45.213l20.992 20.992M50 46.079v35.507"/><path d="M35.294 80.771H20.51C9.183 80.771 0 71.836 0 60.931c0-8.127 5.102-15.2 12.389-18.229.814-7.025 7.001-12.487 14.514-12.487 2.423 0 4.706.571 6.717 1.576 4.69-7.984 13.583-13.377 23.79-13.377 14.712 0 26.702 11.197 27.29 25.221 8.746 1.816 15.3 9.395 15.3 18.356 0 10.319-8.689 18.78-19.409 18.78H64.706"/></g></svg>