<svg xmlns="http://www.w3.org/2000/svg" width="100" height="100" viewBox="0 0 100 100"><g fill="none" stroke="#212121" stroke-width=".7" stroke-linejoin="round" stroke-miterlimit="10"><path d="M35.294 81.178H20.51C9.183 81.178 0 72.243 0 61.338c0-8.127 5.102-15.2 12.389-18.229.814-7.025 7.001-12.487 14.514-12.487 2.423 0 4.706.571 6.717 1.576 4.69-7.984 13.583-13.377 23.79-13.377 14.712 0 26.702 11.197 27.29 25.221 8.746 1.816 15.3 9.395 15.3 18.357 0 10.319-8.689 18.78-19.409 18.78H64.706"/><path d="M72.329 55.024l-7.825-7.825-7.825 7.825"/><path d="M49.088 45.584c-8.514 0-15.416 6.902-15.416 15.416s6.902 15.416 15.416 15.416S64.504 69.514 64.504 61V47.236"/></g></svg>