<svg xmlns="http://www.w3.org/2000/svg" width="98" height="22" viewBox="0 0 98 22"><path fill="#FFF" d="M3.143 21.8a2.945 2.945 0 0 1-2.942-2.942V3.143A2.945 2.945 0 0 1 3.143.2h91.714A2.946 2.946 0 0 1 97.8 3.143v15.714a2.946 2.946 0 0 1-2.943 2.942H3.143z"/><path fill="#666" d="M94.857.4A2.746 2.746 0 0 1 97.6 3.143v15.714a2.746 2.746 0 0 1-2.743 2.743H3.143A2.745 2.745 0 0 1 .4 18.857V3.143A2.745 2.745 0 0 1 3.143.4h91.714m0-.4H3.143A3.143 3.143 0 0 0 0 3.143v15.714A3.143 3.143 0 0 0 3.143 22h91.714A3.143 3.143 0 0 0 98 18.857V3.143A3.143 3.143 0 0 0 94.857 0z"/><g fill="none" stroke-width=".6" stroke-linejoin="round" stroke-miterlimit="10"><path stroke="#E84D1E" d="M17.267 14.064L13.855 11l3.412-3.064"/><path stroke="#3CA0DC" d="M22.106 7.936L25.518 11l-3.412 3.064"/><path stroke="#666" d="M20.632 7.976l-1.891 5.827"/></g><text transform="translate(35.518 14.612)" fill="#333" font-family="'MicrosoftYaHei'" font-size="12" letter-spacing="1">模拟器</text></svg>