<svg xmlns="http://www.w3.org/2000/svg" width="125.984" height="107.986" viewBox="0 0 125.984 107.986"><path fill="#666" d="M8.172 0h.699v15h-.699z"/><path fill="#666" d="M1.022 7.15h15v.7h-15z"/><g fill="#666"><path d="M12.367 34.799l.494-.495-3.608-3.608a.348.348 0 0 0-.494 0l-3.608 3.608.494.495 3.012-3.011v7.843h.699v-7.843l3.011 3.011z"/><path d="M15.302 30.393c-.241-2.492-2.396-4.407-5.021-4.407-1.707 0-3.299.839-4.227 2.21a2.956 2.956 0 0 0-1.018-.182c-1.388 0-2.562.956-2.812 2.254-1.321.629-2.163 1.933-2.163 3.376 0 2.073 1.738 3.76 3.875 3.76h2.541v-.7h-2.54c-1.751 0-3.176-1.373-3.176-3.06 0-1.224.752-2.328 1.914-2.811a.352.352 0 0 0 .214-.283c.121-1.047 1.044-1.836 2.147-1.836.352 0 .688.079.998.234a.349.349 0 0 0 .458-.136c.77-1.312 2.222-2.126 3.788-2.126 2.341 0 4.247 1.757 4.341 4a.35.35 0 0 0 .278.328c1.362.283 2.352 1.466 2.352 2.813 0 1.587-1.34 2.878-2.986 2.878h-2.73v.7h2.73c2.032 0 3.686-1.605 3.686-3.578-.001-1.589-1.099-2.993-2.649-3.434z"/></g><g fill="#666"><path d="M9.356 52.788v-7.471h-.699v7.471l-3.012-3.011-.494.495 3.608 3.608a.348.348 0 0 0 .494 0l3.608-3.608-.494-.495-3.011 3.011z"/><path d="M15.302 45.399c-.241-2.492-2.396-4.407-5.021-4.407-1.707 0-3.299.84-4.227 2.21a2.956 2.956 0 0 0-1.018-.182c-1.388 0-2.562.956-2.812 2.254-1.321.629-2.163 1.933-2.163 3.375 0 2.049 1.697 3.721 3.8 3.76l.022.001h.685v-.7h-.631c-1.751 0-3.176-1.373-3.176-3.061 0-1.224.752-2.327 1.914-2.81a.352.352 0 0 0 .214-.283c.121-1.047 1.044-1.836 2.147-1.836.352 0 .688.079.998.234a.349.349 0 0 0 .458-.136c.771-1.312 2.222-2.127 3.788-2.127 2.341 0 4.247 1.757 4.341 4a.35.35 0 0 0 .278.328c1.362.283 2.352 1.466 2.352 2.813 0 1.587-1.34 2.878-2.986 2.878h-.821v.7h.821c2.032 0 3.686-1.605 3.686-3.578-.001-1.588-1.099-2.993-2.649-3.433z"/></g><g fill="#E6501E"><path d="M9.356 93.634v-7.843l3.012 3.012.494-.495-3.608-3.609a.36.36 0 0 0-.494 0l-3.608 3.609.494.495 3.012-3.012v7.843h.698z"/><path d="M3.937 91.409h2.541v-.7H3.937c-1.751 0-3.176-1.373-3.176-3.06 0-1.224.752-2.327 1.915-2.811a.351.351 0 0 0 .213-.283c.121-1.047 1.044-1.836 2.147-1.836.352 0 .688.079.998.234a.349.349 0 0 0 .458-.136c.77-1.312 2.222-2.126 3.788-2.126 2.341 0 4.247 1.757 4.341 4a.35.35 0 0 0 .278.328c1.362.283 2.352 1.466 2.352 2.813 0 1.587-1.34 2.878-2.986 2.878h-2.73v.7h2.73c2.032 0 3.686-1.605 3.686-3.578 0-1.589-1.099-2.994-2.648-3.434-.241-2.492-2.396-4.407-5.021-4.407-1.707 0-3.299.839-4.227 2.21a2.956 2.956 0 0 0-1.018-.182c-1.388 0-2.562.956-2.812 2.255-1.32.629-2.163 1.933-2.163 3.375 0 2.073 1.738 3.76 3.875 3.76zm5.419 15.383v-7.471h-.699v7.471l-3.012-3.011-.494.495 3.608 3.608a.348.348 0 0 0 .494 0l3.608-3.608-.494-.495-3.011 3.011z"/><path d="M15.302 99.403c-.241-2.492-2.396-4.407-5.021-4.407-1.707 0-3.299.84-4.227 2.21a2.956 2.956 0 0 0-1.018-.182c-1.388 0-2.562.956-2.812 2.254-1.321.629-2.163 1.933-2.163 3.375 0 2.049 1.697 3.721 3.8 3.76l.022.001h.685v-.7h-.631c-1.751 0-3.176-1.373-3.176-3.061 0-1.224.752-2.327 1.914-2.81a.352.352 0 0 0 .214-.283c.121-1.047 1.044-1.836 2.147-1.836.352 0 .688.079.998.234a.35.35 0 0 0 .458-.136c.771-1.312 2.222-2.127 3.788-2.127 2.341 0 4.247 1.757 4.341 4a.35.35 0 0 0 .278.328c1.362.283 2.352 1.466 2.352 2.813 0 1.587-1.34 2.878-2.986 2.878h-.821v.7h.821c2.032 0 3.686-1.605 3.686-3.578-.001-1.588-1.099-2.993-2.649-3.433z"/></g><path fill="#32AF5A" d="M8.172 53.993h.699v15h-.699z"/><path fill="#32AF5A" d="M1.022 61.143h15v.7h-15z"/><path fill="#E5E5E5" d="M125.984 21a3 3 0 0 1-3 3h-48a3 3 0 0 1-3-3V3a3 3 0 0 1 3-3h48a3 3 0 0 1 3 3v18z"/><path d="M87.723 8.833c.563.391 1.254.922 2.074 1.594-.289.328-.52.582-.691.762-.82-.75-1.477-1.313-1.969-1.688l.586-.668zm.832 3.387c.305.117.617.23.938.34a461.002 461.002 0 0 0-1.066 4.523l-1.008-.305a47.055 47.055 0 0 0 1.136-4.558zm-.375-6.434a38.416 38.416 0 0 1 2.027 1.711c-.266.266-.5.504-.703.715a33.387 33.387 0 0 0-1.922-1.781l.598-.645zm1.605 6.539c1.391-.805 2.367-1.648 2.93-2.531h-2.402v-.82h2.801a8.27 8.27 0 0 0 .457-1.793h-2.648v-.82h7.031v.82h-3.469c-.09.68-.219 1.277-.387 1.793h4.418v.82h-2.789c.77 1.082 1.816 1.824 3.141 2.227a8.08 8.08 0 0 0-.703.902c-1.539-.75-2.684-1.793-3.434-3.129h-.967c-.602 1.199-1.721 2.293-3.357 3.281a12.802 12.802 0 0 0-.622-.75zm1.969.282l.82.34a19.047 19.047 0 0 1-1.395 2.848 8.558 8.558 0 0 0-.832-.375 12.78 12.78 0 0 0 1.407-2.813zm1.758-1.266h.891v4.383c0 .867-.457 1.301-1.371 1.301-.469 0-.891-.004-1.266-.012a15.041 15.041 0 0 0-.188-.949c.398.063.793.094 1.184.094.5 0 .75-.238.75-.715v-4.102zm1.23 1.758l.773-.281c.344.875.672 1.832.984 2.871l-.879.293a31.162 31.162 0 0 0-.878-2.883zm1.489-.258l.738-.352a32.22 32.22 0 0 1 1.582 2.801l-.809.398a43.694 43.694 0 0 0-1.511-2.847zm3.187-5.063h1.635c.008-.629.01-1.328.006-2.098h.926c0 .777-.004 1.477-.012 2.098h2.73c-.039 3-.09 5.355-.152 7.066-.031 1.406-.563 2.082-1.594 2.027-.305 0-.754-.012-1.348-.035a31.487 31.487 0 0 0-.188-1.02c.547.07.992.105 1.336.105.523.016.809-.355.855-1.113.086-1.852.137-3.898.152-6.141h-1.805a68.94 68.94 0 0 1-.035 1.523c-.031 3.055-.766 5.406-2.203 7.055a13.581 13.581 0 0 0-.691-.785c1.297-1.422 1.957-3.543 1.98-6.363.016-.41.027-.887.035-1.43h-1.629v-.889zm6.434-.574h4.453v9.656h-.926v-1.184h-2.602v1.184h-.926V7.204zm3.527.867h-2.602v6.762h2.602V8.071z" fill="#818181"/><path fill="#E6501E" d="M74.985 47.5a2.503 2.503 0 0 1-2.5-2.5V27c0-1.378 1.121-2.5 2.5-2.5h48c1.379 0 2.5 1.122 2.5 2.5v18c0 1.378-1.121 2.5-2.5 2.5h-48z"/><path fill="#CD461E" d="M122.984 25c1.103 0 2 .897 2 2v18c0 1.103-.897 2-2 2h-48c-1.103 0-2-.897-2-2V27c0-1.103.897-2 2-2h48m0-1h-48a3 3 0 0 0-3 3v18a3 3 0 0 0 3 3h48a3 3 0 0 0 3-3V27a3 3 0 0 0-3-3z"/><path d="M87.723 32.833c.563.391 1.254.922 2.074 1.594-.289.328-.52.582-.691.762-.82-.75-1.477-1.313-1.969-1.688l.586-.668zm.832 3.387c.305.117.617.23.938.34a461.002 461.002 0 0 0-1.066 4.523l-1.008-.305a47.055 47.055 0 0 0 1.136-4.558zm-.375-6.434a38.416 38.416 0 0 1 2.027 1.711c-.266.266-.5.504-.703.715a33.387 33.387 0 0 0-1.922-1.781l.598-.645zm1.605 6.539c1.391-.805 2.367-1.648 2.93-2.531h-2.402v-.82h2.801a8.27 8.27 0 0 0 .457-1.793h-2.648v-.82h7.031v.82h-3.469c-.09.68-.219 1.277-.387 1.793h4.418v.82h-2.789c.77 1.082 1.816 1.824 3.141 2.227a8.08 8.08 0 0 0-.703.902c-1.539-.75-2.684-1.793-3.434-3.129h-.967c-.602 1.199-1.721 2.293-3.357 3.281a12.802 12.802 0 0 0-.622-.75zm1.969.282l.82.34a19.047 19.047 0 0 1-1.395 2.848 8.558 8.558 0 0 0-.832-.375 12.78 12.78 0 0 0 1.407-2.813zm1.758-1.266h.891v4.383c0 .867-.457 1.301-1.371 1.301-.469 0-.891-.004-1.266-.012a15.041 15.041 0 0 0-.188-.949c.398.063.793.094 1.184.094.5 0 .75-.238.75-.715v-4.102zm1.23 1.758l.773-.281c.344.875.672 1.832.984 2.871l-.879.293a31.162 31.162 0 0 0-.878-2.883zm1.489-.258l.738-.352a32.22 32.22 0 0 1 1.582 2.801l-.809.398a43.694 43.694 0 0 0-1.511-2.847zm3.187-5.063h1.635c.008-.629.01-1.328.006-2.098h.926c0 .777-.004 1.477-.012 2.098h2.73c-.039 3-.09 5.355-.152 7.066-.031 1.406-.563 2.082-1.594 2.027-.305 0-.754-.012-1.348-.035a31.487 31.487 0 0 0-.188-1.02c.547.07.992.105 1.336.105.523.016.809-.355.855-1.113.086-1.852.137-3.898.152-6.141h-1.805a68.94 68.94 0 0 1-.035 1.523c-.031 3.055-.766 5.406-2.203 7.055a13.581 13.581 0 0 0-.691-.785c1.297-1.422 1.957-3.543 1.98-6.363.016-.41.027-.887.035-1.43h-1.629v-.889zm6.434-.574h4.453v9.656h-.926v-1.184h-2.602v1.184h-.926v-9.656zm3.527.867h-2.602v6.762h2.602v-6.762z" fill="#FFF"/><path fill="#EB734B" d="M74.985 71.5a2.503 2.503 0 0 1-2.5-2.5V51c0-1.378 1.121-2.5 2.5-2.5h48c1.379 0 2.5 1.122 2.5 2.5v18c0 1.378-1.121 2.5-2.5 2.5h-48z"/><path fill="#DC5528" d="M122.984 49c1.103 0 2 .897 2 2v18c0 1.103-.897 2-2 2h-48c-1.103 0-2-.897-2-2V51c0-1.103.897-2 2-2h48m0-1h-48a3 3 0 0 0-3 3v18a3 3 0 0 0 3 3h48a3 3 0 0 0 3-3V51a3 3 0 0 0-3-3z"/><path d="M87.723 56.833c.563.391 1.254.922 2.074 1.594-.289.328-.52.582-.691.762-.82-.75-1.477-1.313-1.969-1.688l.586-.668zm.832 3.387c.305.117.617.23.938.34a461.002 461.002 0 0 0-1.066 4.523l-1.008-.305a47.055 47.055 0 0 0 1.136-4.558zm-.375-6.434a38.416 38.416 0 0 1 2.027 1.711c-.266.266-.5.504-.703.715a33.387 33.387 0 0 0-1.922-1.781l.598-.645zm1.605 6.539c1.391-.805 2.367-1.648 2.93-2.531h-2.402v-.82h2.801a8.27 8.27 0 0 0 .457-1.793h-2.648v-.82h7.031v.82h-3.469c-.09.68-.219 1.277-.387 1.793h4.418v.82h-2.789c.77 1.082 1.816 1.824 3.141 2.227a8.08 8.08 0 0 0-.703.902c-1.539-.75-2.684-1.793-3.434-3.129h-.967c-.602 1.199-1.721 2.293-3.357 3.281a12.802 12.802 0 0 0-.622-.75zm1.969.282l.82.34a19.047 19.047 0 0 1-1.395 2.848 8.558 8.558 0 0 0-.832-.375 12.78 12.78 0 0 0 1.407-2.813zm1.758-1.266h.891v4.383c0 .867-.457 1.301-1.371 1.301-.469 0-.891-.004-1.266-.012a15.041 15.041 0 0 0-.188-.949c.398.063.793.094 1.184.094.5 0 .75-.238.75-.715v-4.102zm1.23 1.758l.773-.281c.344.875.672 1.832.984 2.871l-.879.293a31.162 31.162 0 0 0-.878-2.883zm1.489-.258l.738-.352a32.22 32.22 0 0 1 1.582 2.801l-.809.398a43.694 43.694 0 0 0-1.511-2.847zm3.187-5.063h1.635c.008-.629.01-1.328.006-2.098h.926c0 .777-.004 1.477-.012 2.098h2.73c-.039 3-.09 5.355-.152 7.066-.031 1.406-.563 2.082-1.594 2.027-.305 0-.754-.012-1.348-.035a31.487 31.487 0 0 0-.188-1.02c.547.07.992.105 1.336.105.523.016.809-.355.855-1.113.086-1.852.137-3.898.152-6.141h-1.805a68.94 68.94 0 0 1-.035 1.523c-.031 3.055-.766 5.406-2.203 7.055a13.581 13.581 0 0 0-.691-.785c1.297-1.422 1.957-3.543 1.98-6.363.016-.41.027-.887.035-1.43h-1.629v-.889zm6.434-.574h4.453v9.656h-.926v-1.184h-2.602v1.184h-.926v-9.656zm3.527.867h-2.602v6.762h2.602v-6.762z" fill="#FFF"/><path fill="#F5F5F5" d="M72 21a3 3 0 0 1-3 3H21a3 3 0 0 1-3-3V3a3 3 0 0 1 3-3h48a3 3 0 0 1 3 3v18z"/><path d="M33.164 14.411c.344-.043.695-.088 1.055-.135V7.028h-.879v-.82h5.742v.41h5.121v.738c-.453 2.883-1.121 5.006-2.004 6.369.738 1.043 1.625 1.854 2.66 2.432a8.58 8.58 0 0 0-.715.867c-.836-.609-1.66-1.461-2.473-2.555a12.618 12.618 0 0 1-2.813 2.695 13.188 13.188 0 0 0-.598-.738v.727h-.879v-2.537c-1.426.223-2.789.443-4.09.662l-.127-.867zm1.934-5.59h2.285V7.028h-2.285v1.793zm0 2.543h2.285V9.571h-2.285v1.793zm2.285 2.461v-1.711h-2.285v2.045c.73-.105 1.492-.216 2.285-.334zm1.606-6.41v-.387h-.727v6.662c.438-.07.883-.143 1.336-.217-.023.32-.035.59-.035.809-.441.066-.875.133-1.301.199v1.887c1.094-.641 2.059-1.521 2.895-2.643-.902-1.438-1.482-3.541-1.74-6.311h-.428zm4.335 0h-3.059c.184 2.285.66 4.125 1.43 5.52.68-1.145 1.223-2.985 1.629-5.52zm2.426 1.406c.586.414 1.273.945 2.063 1.594-.289.328-.516.582-.68.762-.883-.789-1.539-1.348-1.969-1.676l.586-.68zm.832 3.387c.32.125.641.242.961.352a304.067 304.067 0 0 0-1.078 4.523l-1.031-.305c.422-1.39.805-2.914 1.148-4.57zm-.386-6.422a43.089 43.089 0 0 1 2.016 1.711c-.266.273-.496.516-.691.727-.844-.82-1.484-1.418-1.922-1.793l.597-.645zm2.425.692l.68-.539c.359.328.957.965 1.793 1.91l-.797.609c-.765-.961-1.324-1.621-1.676-1.98zm1.09 10.64h-.926V8.927h3.211V5.611h.973v3.316h3.141V15.7c0 .914-.438 1.371-1.313 1.371-.508 0-1.184-.012-2.027-.035a25.89 25.89 0 0 0-.176-.961c.773.047 1.387.07 1.84.07.5 0 .75-.215.75-.645v-1.113h-5.473v2.731zm5.473-7.312h-5.473v1.441h5.473V9.806zm-5.473 3.738h5.473v-1.453h-5.473v1.453zm4.196-5.613a16.956 16.956 0 0 0 1.676-1.992l.844.645a34.316 34.316 0 0 1-1.828 1.957l-.692-.61z" fill="#333"/><path fill="#F5F5F5" d="M72 45a3 3 0 0 1-3 3H21a3 3 0 0 1-3-3V27a3 3 0 0 1 3-3h48a3 3 0 0 1 3 3v18z" opacity=".75"/><path d="M33.164 38.411c.344-.043.695-.088 1.055-.135v-7.248h-.879v-.82h5.742v.41h5.121v.738c-.453 2.883-1.121 5.006-2.004 6.369.738 1.043 1.625 1.854 2.66 2.432a8.58 8.58 0 0 0-.715.867c-.836-.609-1.66-1.461-2.473-2.555a12.618 12.618 0 0 1-2.813 2.695 13.188 13.188 0 0 0-.598-.738v.727h-.879v-2.537c-1.426.223-2.789.443-4.09.662l-.127-.867zm1.934-5.59h2.285v-1.793h-2.285v1.793zm0 2.543h2.285v-1.793h-2.285v1.793zm2.285 2.461v-1.711h-2.285v2.045c.73-.105 1.492-.216 2.285-.334zm1.606-6.41v-.387h-.727v6.662c.438-.07.883-.143 1.336-.217-.023.32-.035.59-.035.809-.441.066-.875.133-1.301.199v1.887c1.094-.641 2.059-1.521 2.895-2.643-.902-1.438-1.482-3.541-1.74-6.311h-.428zm4.335 0h-3.059c.184 2.285.66 4.125 1.43 5.52.68-1.145 1.223-2.985 1.629-5.52zm2.426 1.406c.586.414 1.273.945 2.063 1.594-.289.328-.516.582-.68.762-.883-.789-1.539-1.348-1.969-1.676l.586-.68zm.832 3.387c.32.125.641.242.961.352a304.067 304.067 0 0 0-1.078 4.523l-1.031-.305c.422-1.39.805-2.914 1.148-4.57zm-.386-6.422a43.089 43.089 0 0 1 2.016 1.711c-.266.273-.496.516-.691.727-.844-.82-1.484-1.418-1.922-1.793l.597-.645zm2.425.692l.68-.539c.359.328.957.965 1.793 1.91l-.797.609c-.765-.961-1.324-1.621-1.676-1.98zm1.09 10.64h-.926v-8.191h3.211v-3.316h.973v3.316h3.141V39.7c0 .914-.438 1.371-1.313 1.371-.508 0-1.184-.012-2.027-.035a25.89 25.89 0 0 0-.176-.961c.773.047 1.387.07 1.84.07.5 0 .75-.215.75-.645v-1.113h-5.473v2.731zm5.473-7.312h-5.473v1.441h5.473v-1.441zm-5.473 3.738h5.473v-1.453h-5.473v1.453zm4.196-5.613a16.956 16.956 0 0 0 1.676-1.992l.844.645a34.316 34.316 0 0 1-1.828 1.957l-.692-.61z" fill="#666"/><path fill="#F5F5F5" d="M72 69a3 3 0 0 1-3 3H21a3 3 0 0 1-3-3V51a3 3 0 0 1 3-3h48a3 3 0 0 1 3 3v18z" opacity=".75"/><path d="M33.164 62.411c.344-.043.695-.088 1.055-.135v-7.248h-.879v-.82h5.742v.41h5.121v.738c-.453 2.883-1.121 5.006-2.004 6.369.738 1.043 1.625 1.854 2.66 2.432a8.58 8.58 0 0 0-.715.867c-.836-.609-1.66-1.461-2.473-2.555a12.618 12.618 0 0 1-2.813 2.695 13.188 13.188 0 0 0-.598-.738v.727h-.879v-2.537c-1.426.223-2.789.443-4.09.662l-.127-.867zm1.934-5.59h2.285v-1.793h-2.285v1.793zm0 2.543h2.285v-1.793h-2.285v1.793zm2.285 2.461v-1.711h-2.285v2.045c.73-.105 1.492-.216 2.285-.334zm1.606-6.41v-.387h-.727v6.662c.438-.07.883-.143 1.336-.217-.023.32-.035.59-.035.809-.441.066-.875.133-1.301.199v1.887c1.094-.641 2.059-1.521 2.895-2.643-.902-1.438-1.482-3.541-1.74-6.311h-.428zm4.335 0h-3.059c.184 2.285.66 4.125 1.43 5.52.68-1.145 1.223-2.985 1.629-5.52zm2.426 1.406c.586.414 1.273.945 2.063 1.594-.289.328-.516.582-.68.762-.883-.789-1.539-1.348-1.969-1.676l.586-.68zm.832 3.387c.32.125.641.242.961.352a304.067 304.067 0 0 0-1.078 4.523l-1.031-.305c.422-1.39.805-2.914 1.148-4.57zm-.386-6.422a43.089 43.089 0 0 1 2.016 1.711c-.266.273-.496.516-.691.727-.844-.82-1.484-1.418-1.922-1.793l.597-.645zm2.425.692l.68-.539c.359.328.957.965 1.793 1.91l-.797.609c-.765-.961-1.324-1.621-1.676-1.98zm1.09 10.64h-.926v-8.191h3.211v-3.316h.973v3.316h3.141V63.7c0 .914-.438 1.371-1.313 1.371-.508 0-1.184-.012-2.027-.035a25.89 25.89 0 0 0-.176-.961c.773.047 1.387.07 1.84.07.5 0 .75-.215.75-.645v-1.113h-5.473v2.731zm5.473-7.312h-5.473v1.441h5.473v-1.441zm-5.473 3.738h5.473v-1.453h-5.473v1.453zm4.196-5.613a16.956 16.956 0 0 0 1.676-1.992l.844.645a34.316 34.316 0 0 1-1.828 1.957l-.692-.61z" fill="#818181"/><path fill="#F0916E" d="M74.985 95.5a2.503 2.503 0 0 1-2.5-2.5V75c0-1.378 1.121-2.5 2.5-2.5h48c1.379 0 2.5 1.122 2.5 2.5v18c0 1.378-1.121 2.5-2.5 2.5h-48z"/><path fill="#E67855" d="M122.984 73c1.103 0 2 .897 2 2v18c0 1.103-.897 2-2 2h-48c-1.103 0-2-.897-2-2V75c0-1.103.897-2 2-2h48m0-1h-48a3 3 0 0 0-3 3v18a3 3 0 0 0 3 3h48a3 3 0 0 0 3-3V75a3 3 0 0 0-3-3z"/><path d="M87.723 80.833c.563.391 1.254.922 2.074 1.594-.289.328-.52.582-.691.762-.82-.75-1.477-1.313-1.969-1.688l.586-.668zm.832 3.387c.305.117.617.23.938.34a461.002 461.002 0 0 0-1.066 4.523l-1.008-.305a47.055 47.055 0 0 0 1.136-4.558zm-.375-6.434a38.416 38.416 0 0 1 2.027 1.711c-.266.266-.5.504-.703.715a33.387 33.387 0 0 0-1.922-1.781l.598-.645zm1.605 6.539c1.391-.805 2.367-1.648 2.93-2.531h-2.402v-.82h2.801a8.27 8.27 0 0 0 .457-1.793h-2.648v-.82h7.031v.82h-3.469c-.09.68-.219 1.277-.387 1.793h4.418v.82h-2.789c.77 1.082 1.816 1.824 3.141 2.227a8.08 8.08 0 0 0-.703.902c-1.539-.75-2.684-1.793-3.434-3.129h-.967c-.602 1.199-1.721 2.293-3.357 3.281a12.802 12.802 0 0 0-.622-.75zm1.969.282l.82.34a19.047 19.047 0 0 1-1.395 2.848 8.558 8.558 0 0 0-.832-.375 12.78 12.78 0 0 0 1.407-2.813zm1.758-1.266h.891v4.383c0 .867-.457 1.301-1.371 1.301-.469 0-.891-.004-1.266-.012a15.041 15.041 0 0 0-.188-.949c.398.063.793.094 1.184.094.5 0 .75-.238.75-.715v-4.102zm1.23 1.758l.773-.281c.344.875.672 1.832.984 2.871l-.879.293a31.162 31.162 0 0 0-.878-2.883zm1.489-.258l.738-.352a32.22 32.22 0 0 1 1.582 2.801l-.809.398a43.694 43.694 0 0 0-1.511-2.847zm3.187-5.063h1.635c.008-.629.01-1.328.006-2.098h.926c0 .777-.004 1.477-.012 2.098h2.73c-.039 3-.09 5.355-.152 7.066-.031 1.406-.563 2.082-1.594 2.027-.305 0-.754-.012-1.348-.035a31.487 31.487 0 0 0-.188-1.02c.547.07.992.105 1.336.105.523.016.809-.355.855-1.113.086-1.852.137-3.898.152-6.141h-1.805a68.94 68.94 0 0 1-.035 1.523c-.031 3.055-.766 5.406-2.203 7.055a13.581 13.581 0 0 0-.691-.785c1.297-1.422 1.957-3.543 1.98-6.363.016-.41.027-.887.035-1.43h-1.629v-.889zm6.434-.574h4.453v9.656h-.926v-1.184h-2.602v1.184h-.926v-9.656zm3.527.867h-2.602v6.762h2.602v-6.762z" fill="#FFF"/><path fill="#EB3232" d="M14.686 68.993h-.989l-5.155 5.156-5.156-5.156h-.989l5.65 5.65L2.7 79.99h.989l4.853-4.852 4.852 4.852h.99l-5.348-5.347z"/><path fill="#666" d="M14.686 15h-.989l-5.155 5.155L3.386 15h-.989l5.65 5.65L2.7 25.997h.989l4.853-4.852 4.852 4.852h.99L9.036 20.65z"/></svg>