<svg id="图层_1" xmlns="http://www.w3.org/2000/svg" width="57.1" height="13.6" viewBox="0 0 57.1 13.6"><style>.st0{fill:#e84d1e}.st1{fill:#333}</style><path class="st0" d="M11.7 13.6c-.3 0-.6-.1-.8-.3L5.8 8.2c-.2-.2-.4-.3-.7-.3H2.4c-.6 0-1-.4-1.2-.9L0 3.7c-.1-.4 0-.9.3-1.2l.4-.4c0-.1.2-.1.3.1l2.7 2.7c.3.3.8.3 1.1 0 .3-.3.3-.8 0-1.1L2.1 1.1c-.2-.1-.2-.3 0-.4l.4-.4c.2-.3.7-.4 1.1-.2l3.3 1.2c.5.2.9.7.9 1.2v2.7c0 .3.1.5.3.7l5.1 5.1c.5.5.5 1.2 0 1.6l-.6.6c-.3.2-.6.4-.9.4zM5.1 7.3c.4 0 .8.2 1.1.5l5.1 5.1c.1.1.2.2.4.2.1 0 .3-.1.4-.2l.6-.6c.2-.2.2-.6 0-.8L7.6 6.3c-.3-.3-.4-.7-.4-1.1V2.5c0-.3-.2-.6-.5-.7L3.4.6c-.2-.1-.4 0-.5.1l-.2.2 2.5 2.5c.5.5.5 1.4 0 1.9s-1.4.5-1.9 0L.8 2.8l-.2.1c-.1.2-.1.4-.1.6l1.2 3.4c.1.3.4.5.7.5l2.7-.1z"/><path class="st1" d="M22 9.1s0-.1-.1-.2c-.1-.2-.2-.4-.2-.5.7-1.2 1.3-2.6 1.7-4.3H22v-.6h1.5V1.2h.7v2.3h1.3v.6h-1.3V6l.3-.3.5.5c.2.1.5.4.9.9l-.5.4c-.4-.5-.8-.9-1.2-1.3v6.1h-.7V5.6c-.4 1.4-.9 2.6-1.5 3.5zm3.2.2h3.5c.1-.4.1-.8.1-1.2h-2.7V4.3h6.1v3.8h-2.8c0 .4 0 .8-.1 1.2H33v.6h-3.4c.6 1 1.8 1.6 3.6 1.8-.1.1-.2.3-.3.5v.1c-1.9-.4-3.2-1.1-3.8-2.2-.4 1-1.7 1.8-3.8 2.4-.1-.2-.2-.4-.4-.6 2.1-.5 3.3-1.1 3.6-2h-3.3v-.6zm.2-7h2V1.2h.6v1.1h2.2V1.2h.6v1.1h2.1v.5h-2.1v.9h-.6v-.9H28v.9h-.6v-.9h-2v-.5zm1.3 2.5v1.1h4.8V4.8h-4.8zm0 1.7v1.1h4.8V6.5h-4.8zM33.9 8l-.1-.7c.1 0 .3-.1.6-.2.5-.1.8-.2 1.1-.3V4.1H34v-.6h1.5V1.2h.6v2.3h1.4v.6h-1.4v2.7c.2-.1.5-.2.8-.3.3-.1.5-.2.6-.2v.6c-.1 0-.3.1-.6.2-.4.1-.7.2-.8.3V11c.1.8-.3 1.2-1.2 1.2h-.8c0-.3-.1-.5-.1-.7h.8c.5 0 .7-.2.7-.6V7.5c-.2.1-.4.1-.7.2-.4.2-.7.3-.9.3zm5 1.5c.2-.1.4-.3.7-.6.6-.5 1-.9 1.3-1.1 0 .2.1.4.2.6-.6.4-1.3 1-2.1 1.8-.3.3-.4.5-.6.6l-.5-.5c.2-.3.3-.6.3-1V2.1h.6v7.4zm4.3-8.2h.6v2.3c0 .6-.1 1.2-.1 1.7-.1 1.5-.3 2.7-.7 3.7.5.5 1.2 1.3 2.1 2.3l.2.2-.5.5c-.7-.9-1.3-1.7-2-2.4-.5.9-1.5 1.9-2.9 2.8 0-.1-.1-.2-.3-.4-.1-.1-.1-.2-.1-.2 2.4-1.3 3.7-3.4 3.7-6.5-.1-1.3 0-2.6 0-4zm-3.3.1l.5-.2c.5.9.9 1.8 1.4 2.7l-.6.3c-.2-.3-.4-.8-.7-1.4-.2-.6-.5-1.1-.6-1.4zm16.9 7.1c-2.8-.1-4.5-.8-5.2-2.1h-.3c-.3 1.1-2 1.8-5.2 2.2 0-.1-.1-.2-.1-.3-.1-.1-.2-.2-.2-.3 2.9-.3 4.5-.9 4.9-1.6h-4.5v-.5h4.7c.1-.3.2-.6.2-1h.6c0 .4-.1.7-.2 1h2.4c-.1-.2-.3-.5-.5-.8l.6-.2c.2.3.4.7.6 1h2.3v.5h-4.6c.7 1 2.3 1.5 4.8 1.5 0 .1-.1.2-.2.4-.1.1-.1.2-.1.2zm-10-6.7h3.8v2.9h-3.8V1.8zm0 7.1h3.9v3.4h-.6v-.6h-2.7v.6h-.6V8.9zm.6-6.6v1.8h2.7V2.3h-2.7zm0 7.1v1.8h2.7V9.4h-2.7zm4.8-7.6h3.9v2.9h-3.9V1.8zm0 7.1h3.9v3.5h-.6v-.6h-2.7v.6h-.6V8.9zm.6-6.6v1.8h2.7V2.3h-2.7zm0 7.1v1.8h2.7V9.4h-2.7z"/></svg>